<svg xmlns="http://www.w3.org/2000/svg" width="87" height="87" fill="none" viewBox="0 0 87 87">
  <path fill="#CDCDCD" d="M53.442 57.622c-7.946 5.412-18.813 3.35-24.224-4.594-5.412-7.944-3.352-18.812 4.593-24.224 7.946-5.412 18.813-3.35 24.225 4.594 5.411 7.944 3.35 18.813-4.594 24.224ZM34.52 29.844c-7.372 5.021-9.283 15.103-4.261 22.475 5.021 7.371 15.104 9.283 22.474 4.263 7.37-5.02 9.284-15.104 4.262-22.476-5.02-7.371-15.103-9.283-22.475-4.262Z"/>
  <path fill="#CBCBCB" d="M55.898 31.574h-.525c-.49 0-.928-.055-1.262-.116.047-.338.182-.927.288-1.326l.134-.508-.51.122a7.082 7.082 0 0 1-1.444.183l-.009-.028c-.068-.206-.095-1.04-.095-1.566l.002-.525-.464.247a6.986 6.986 0 0 1-1.054.45c.042-.428.106-.867.108-.872l.077-.52-.493.178a7.11 7.11 0 0 1-1.484.352 16.801 16.801 0 0 1-.135-1.125l-.045-.523-.44.286a6.98 6.98 0 0 1-.807.45c.188-.948.26-1.666.214-2.136-.126-1.286-.238-4.246-.256-4.723.017-.18-.031-.526-.548-.822-.308-.177-.72-.299-1.163-.34-.624-.06-1.202.044-1.547.28a.806.806 0 0 0-.313.377c-.194.271-.547.924-.413 1.923.064.465.194.978.332 1.522.213.839.434 1.707.383 2.358-.03.393-.195 1.075-.479 1.984-.245-.215-.686-.7-.972-1.035l-.34-.4-.191.49a7.06 7.06 0 0 1-.6 1.18 18.6 18.6 0 0 1-.751-.688l-.376-.367-.146.505a6.944 6.944 0 0 1-.438 1.128 15.822 15.822 0 0 1-1.124-.609l-.451-.268-.024.524a6.99 6.99 0 0 1-.155 1.165c-.45-.145-.971-.354-.977-.356l-.487-.195.058.522a7.19 7.19 0 0 1 .018 1.352c-.334-.023-.958-.128-1.377-.213l-.514-.105.15.502c.153.509.224.98.256 1.31-.323.034-.983.028-1.425.009l-.524-.023.228.474a7.08 7.08 0 0 1 .481 1.339c-.347.023-.918.016-1.313 0l-.524-.023.228.472c.287.594.44 1.148.511 1.458-.326.075-.954.155-1.382.194l-.522.049.29.437c.317.48.532.95.655 1.256-.284.107-.973.261-1.43.347l-.516.098.33.409c.369.458.628.91.779 1.208-.322.157-.898.373-1.252.496l-.496.171.385.356c.35.324.631.658.827.916-.367.163-.876.347-1.09.422l-.496.17.385.357a7.1 7.1 0 0 1 .951 1.086 16.89 16.89 0 0 1-1.07.413l-.496.17.385.357c.36.331.643.67.846.942a15.09 15.09 0 0 1-1.112.778l-.443.28.457.258c.523.294.94.629 1.186.846l-.012.026c-.091.197-.637.828-.995 1.215l-.357.384.507.133a7.04 7.04 0 0 1 1.08.385c-.32.286-.667.564-.672.569l-.409.328.483.205c.511.218.933.477 1.213.669-.175.293-.532.782-.787 1.11l-.322.415.517.088c.445.076.84.194 1.138.298-.053.272-.326.974-.518 1.422l-.208.481.523-.045c.468-.04.896-.024 1.218.004-.158.303-.485.81-.72 1.15l-.298.433.522.06c.486.054.916.159 1.24.257-.084.33-.285.9-.435 1.285l-.19.49.52-.064a7.128 7.128 0 0 1 1.457-.021l.006.029c.044.213-.021 1.044-.082 1.567l-.06.52.487-.192a7.095 7.095 0 0 1 1.098-.33c-.088.42-.203.849-.203.855l-.134.507.51-.121a7.194 7.194 0 0 1 1.373-.18c.032.34.035.946.023 1.36l-.013.524.468-.235a7.15 7.15 0 0 1 1.318-.498c.12.285.3.958.405 1.406l.119.512.394-.347c.31-.273.672-.533 1.041-.753l.01.008c.167.14.635.83.914 1.276l.278.445.261-.455c.208-.363.435-.673.622-.905l.007.004c.194.096.808.66 1.183 1.03l.373.369.15-.504a6.78 6.78 0 0 1 .29-.79c.273.093.92.438 1.334.678l.455.262.016-.524c.004-.148.015-.3.03-.454.32.14.803.392 1.136.58l.457.257.01-.525a7.04 7.04 0 0 1 .109-1.075c.245.06.954.405 1.4.643l.464.245-.002-.524a7.19 7.19 0 0 1 .096-1.16c.385.18.767.382.771.385l.464.247-.002-.524a7.083 7.083 0 0 1 .137-1.384 15.35 15.35 0 0 1 1.264.246l.51.121-.134-.507a7.115 7.115 0 0 1-.206-1.23c.4.026.94.1 1.164.133l.518.08-.174-.495a6.714 6.714 0 0 1-.176-.58l.123.033-.117-.51a.542.542 0 0 1-.01-.041c.479.034 1.075.12 1.081.122l.52.075-.179-.493a7.028 7.028 0 0 1-.325-1.273c.168-.005.28-.007.282-.006l.524-.006-.009-.018c.212.03.365.054.367.055l.52.083-.172-.496a7.054 7.054 0 0 1-.333-1.48c.226-.091 1.017-.213 1.524-.272l.52-.06-.298-.431a7.088 7.088 0 0 1-.748-1.393c.36-.177.95-.404 1.197-.493l.493-.18-.392-.35a7.18 7.18 0 0 1-.896-.974l.002-.002c.13-.174.8-.673 1.231-.973l.431-.298-.466-.24a6.994 6.994 0 0 1-.894-.55l-.078-.062a5.732 5.732 0 0 1-.175-.145c.346-.203.98-.489 1.22-.593l.483-.208-.411-.326a7.07 7.07 0 0 1-1.012-.992c.362-.31.822-.654.828-.659l.421-.313-.474-.223a6.911 6.911 0 0 1-.8-.446c.182-.292.538-.765.791-1.082l.329-.41-.516-.096a7.229 7.229 0 0 1-1.082-.294c.314-.331.688-.68.694-.686l.383-.358-.497-.17a7.092 7.092 0 0 1-1.258-.577c.152-.304.473-.82.703-1.166l.29-.436-.521-.05a7.05 7.05 0 0 1-1.106-.2c.195-.261.64-.74.95-1.051l.37-.373-.502-.15a7.108 7.108 0 0 1-1.264-.52c.108-.306.398-.898.605-1.29l.246-.462-.525.002a7.124 7.124 0 0 1-1.099-.084c.019-.268.215-1.01.358-1.482l.152-.502-.515.103c-.436.087-.84.12-1.165.13l.082-.272-.012.002c.138-.305.325-.679.472-.953l.247-.462-.006.007Z"/>
  <path fill="#433709" d="M42.724 17.157s-.618.641-.455 1.855c.164 1.213.828 2.896.739 4.061-.09 1.165-1.164 4.032-1.164 4.032l1.335 1.96 1.815-1.407s1.139-3.695.994-5.167c-.145-1.473-.268-4.995-.268-4.995l-2.996-.34Z"/>
  <path fill="#261C02" d="M43.904 17.295c.027.705.362 3.615.489 4.9.144 1.473-.995 5.168-.995 5.168l-1.199.69.67.982 1.814-1.407s1.14-3.695.994-5.168c-.144-1.472-.268-4.995-.268-4.995l-1.503-.17h-.002Z"/>
  <path fill="#FCD3B3" d="M45.727 17.57c-.037.383-.756.63-1.604.547-.85-.081-1.507-.46-1.47-.845.037-.384.755-.63 1.604-.548.849.081 1.506.46 1.47.845Z"/>
  <path fill="#4B5B19" d="M42.14 25.581s-5.865.035-10.32 7.868c-4.455 7.832-3.732 14.407-.688 20.063 3.043 5.657 6.532 8.41 11.924 8.809 5.392.4 14.132-7.952 14.123-13.73-.012-7.43-2.026-14.165-4.122-17.301-2.096-3.136-5.017-4.611-6.524-5.205-1.505-.593-3.12-.692-3.12-.692l-1.271.188h-.001Z"/>
  <path fill="#6B7B3E" d="M39.03 24.855s.97.946 1.308 1.11l.337.165-.66 1.292s-.913-.82-.898-.847c.014-.026-.088-1.72-.088-1.72Z"/>
  <path fill="#4B5B19" d="M39.03 24.855c-.3 1.04-.786 1.79-.786 1.79l1.772.778-.985-2.567Z"/>
  <path fill="#6B7B3E" d="M36.948 25.577s1.164.694 1.532.775l.367.081-.342 1.41s-1.078-.585-1.07-.615c.008-.03-.486-1.652-.486-1.652h-.001Z"/>
  <path fill="#4B5B19" d="M36.949 25.577a7.468 7.468 0 0 1-.347 1.924l1.904.343-1.557-2.267Z"/>
  <path fill="#6B7B3E" d="M35.342 26.693s1.259.503 1.633.526l.376.023-.116 1.446s-1.157-.41-1.154-.44c.003-.03-.738-1.555-.738-1.555h-.001Z"/>
  <path fill="#4B5B19" d="M35.341 26.693c.12 1.076-.042 1.956-.042 1.956l1.934.04-1.893-1.995h.001Z"/>
  <path fill="#6B7B3E" d="M30.871 31.83s1.355.057 1.716-.045l.362-.103.37 1.403s-1.227-.003-1.234-.033c-.007-.03-1.212-1.222-1.212-1.222h-.002Z"/>
  <path fill="#4B5B19" d="M30.87 31.83a7.41 7.41 0 0 1 .61 1.858l1.838-.605-2.446-1.254h-.001Z"/>
  <path fill="#6B7B3E" d="M32.031 29.989s1.355.057 1.716-.045l.362-.103.37 1.403s-1.227-.003-1.234-.032c-.007-.03-1.212-1.223-1.212-1.223h-.002Z"/>
  <path fill="#4B5B19" d="M32.03 29.989a7.41 7.41 0 0 1 .61 1.858l1.838-.604-2.446-1.255-.001.001Z"/>
  <path fill="#6B7B3E" d="M33.557 28.218s1.328.27 1.702.225l.373-.044.145 1.444s-1.212-.196-1.214-.227c-.001-.03-1.005-1.398-1.005-1.398h-.001Z"/>
  <path fill="#4B5B19" d="M33.556 28.218c.311 1.036.307 1.931.307 1.931l1.911-.307-2.218-1.624Z"/>
  <path fill="#6B7B3E" d="M40.948 24.235s.88 1.032 1.201 1.226l.322.195-.777 1.225s-.833-.902-.816-.927c.018-.025.07-1.72.07-1.72v.001Z"/>
  <path fill="#4B5B19" d="M40.948 24.235c-.394 1.008-.948 1.71-.948 1.71l1.692.936-.745-2.647v.001Z"/>
  <path fill="#6B7B3E" d="M27.69 40.318s1.28-.443 1.579-.67l.299-.228.858 1.17s-1.143.446-1.16.422c-.017-.025-1.576-.694-1.576-.694Z"/>
  <path fill="#4B5B19" d="M27.69 40.318a7.406 7.406 0 0 1 1.246 1.507l1.49-1.236-2.736-.27Z"/>
  <path fill="#6B7B3E" d="M28.074 38.4s1.281-.444 1.58-.671l.299-.228.858 1.17s-1.143.446-1.16.422c-.017-.025-1.577-.694-1.577-.694Z"/>
  <path fill="#4B5B19" d="M28.074 38.4a7.405 7.405 0 0 1 1.247 1.506l1.49-1.236-2.737-.27Z"/>
  <path fill="#6B7B3E" d="M28.708 36.138s1.333-.251 1.66-.432l.33-.183.677 1.284s-1.196.274-1.21.248c-.012-.028-1.458-.917-1.458-.917h.001Z"/>
  <path fill="#4B5B19" d="M28.707 36.138a7.386 7.386 0 0 1 1.014 1.672l1.654-1.003-2.668-.67Z"/>
  <path fill="#6B7B3E" d="M29.715 33.992s1.35-.126 1.693-.276l.345-.15.556 1.34s-1.217.163-1.228.134c-.01-.029-1.366-1.048-1.366-1.048Z"/>
  <path fill="#4B5B19" d="M29.714 33.992c.597.903.854 1.76.854 1.76l1.74-.847-2.594-.913Z"/>
  <path fill="#6B7B3E" d="M27.451 42.404s1.281-.444 1.58-.671l.299-.228.858 1.17s-1.143.447-1.16.422c-.017-.025-1.577-.694-1.577-.694Z"/>
  <path fill="#4B5B19" d="M27.451 42.404a7.406 7.406 0 0 1 1.247 1.506l1.49-1.236-2.737-.27Z"/>
  <path fill="#6B7B3E" d="M27.133 44.684s1.143-.727 1.382-1.018l.238-.291 1.105.94s-1.01.699-1.032.678c-.023-.02-1.694-.31-1.694-.31Z"/>
  <path fill="#4B5B19" d="M27.133 44.684a7.425 7.425 0 0 1 1.561 1.178l1.165-1.547-2.725.368h-.001Z"/>
  <path fill="#6B7B3E" d="M27.393 47.331s.924-.992 1.08-1.334l.157-.341 1.307.63s-.8.931-.826.917c-.028-.015-1.718.128-1.718.128Z"/>
  <path fill="#4B5B19" d="M27.393 47.331c1.046.276 1.808.745 1.808.745l.735-1.79-2.543 1.045Z"/>
  <path fill="#6B7B3E" d="M27.933 48.877s1.057-.85 1.262-1.164l.204-.314 1.201.812s-.925.806-.95.788c-.024-.018-1.718-.121-1.718-.121l.001-.001Z"/>
  <path fill="#4B5B19" d="M27.933 48.877a7.4 7.4 0 0 1 1.68.999l.987-1.665-2.668.667v-.001Z"/>
  <path fill="#6B7B3E" d="M28.501 51.203s.832-1.07.958-1.424l.127-.354 1.357.512s-.714.998-.743.986c-.028-.012-1.7.279-1.7.279h.001Z"/>
  <path fill="#4B5B19" d="M28.501 51.203a7.362 7.362 0 0 1 1.866.583l.575-1.847-2.442 1.265.001-.001Z"/>
  <path fill="#6B7B3E" d="M29.38 53.418s.536-1.245.568-1.62l.033-.375 1.443.153s-.44 1.147-.47 1.142c-.03-.005-1.573.698-1.573.698v.002Z"/>
  <path fill="#4B5B19" d="M29.381 53.418a7.426 7.426 0 0 1 1.953.092l.09-1.933-2.043 1.84Z"/>
  <path fill="#6B7B3E" d="M30.186 55.112s.768-1.116.874-1.476l.106-.36 1.384.433s-.655 1.038-.684 1.028c-.03-.01-1.68.377-1.68.377v-.002Z"/>
  <path fill="#4B5B19" d="M30.186 55.112a7.419 7.419 0 0 1 1.896.474l.468-1.877-2.364 1.403Z"/>
  <path fill="#6B7B3E" d="M31.28 57.138s.492-1.263.51-1.638l.02-.375 1.447.102s-.399 1.162-.428 1.158c-.03-.003-1.549.753-1.549.753Z"/>
  <path fill="#4B5B19" d="M31.28 57.138c1.074-.13 1.955.025 1.955.025l.022-1.935-1.977 1.91Z"/>
  <path fill="#6B7B3E" d="M33.06 59.115s.155-1.346.079-1.714l-.077-.368 1.427-.267s-.092 1.224-.122 1.228c-.03.004-1.308 1.12-1.308 1.12l.001.001Z"/>
  <path fill="#4B5B19" d="M33.06 59.115a7.43 7.43 0 0 1 1.898-.472l-.469-1.877-1.429 2.35Z"/>
  <path fill="#6B7B3E" d="M34.411 60.04s.348-1.31.326-1.685l-.022-.375 1.45-.058s-.267 1.198-.298 1.198c-.03 0-1.456.92-1.456.92Z"/>
  <path fill="#4B5B19" d="M34.41 60.04c1.054-.248 1.946-.192 1.946-.192l-.193-1.926-1.753 2.117v.001Z"/>
  <path fill="#6B7B3E" d="M36.245 61.578s.037-1.355-.071-1.714l-.109-.36 1.398-.39s.015 1.227-.014 1.234c-.03.007-1.204 1.231-1.204 1.231Z"/>
  <path fill="#4B5B19" d="M36.244 61.578a7.4 7.4 0 0 1 1.849-.636l-.632-1.83-1.217 2.466Z"/>
  <path fill="#6B7B3E" d="M56.881 35.905s-.955.96-1.123 1.297l-.167.336-1.285-.672s.83-.905.855-.89c.027.015 1.72-.071 1.72-.071Z"/>
  <path fill="#4B5B19" d="M56.882 35.905c-1.038-.31-1.783-.804-1.783-.804l-.793 1.764 2.577-.961h-.001Z"/>
  <path fill="#6B7B3E" d="M56.01 33.581s-.635 1.198-.697 1.57l-.063.37-1.425-.271s.53-1.107.56-1.1c.03.006 1.625-.569 1.625-.569Z"/>
  <path fill="#4B5B19" d="M56.01 33.581c-1.083.006-1.94-.25-1.94-.25l-.248 1.919 2.186-1.669h.001Z"/>
  <path fill="#6B7B3E" d="M54.937 31.553s-.392 1.297-.383 1.672l.01.376-1.45.009s.308-1.189.337-1.188c.03 0 1.485-.87 1.485-.87v.001Z"/>
  <path fill="#4B5B19" d="M54.936 31.553c-1.06.213-1.95.127-1.95.127l.127 1.931 1.823-2.058Z"/>
  <path fill="#6B7B3E" d="M54.073 33.354s-.392 1.298-.384 1.673l.01.376-1.45.009s.308-1.189.337-1.188c.03 0 1.485-.87 1.485-.87h.002Z"/>
  <path fill="#4B5B19" d="M54.073 33.354c-1.061.213-1.95.127-1.95.127l.127 1.932 1.823-2.059Z"/>
  <path fill="#6B7B3E" d="M54.25 35.144s-.391 1.297-.383 1.672l.01.376-1.451.009s.308-1.188.338-1.187c.03 0 1.485-.87 1.485-.87h.001Z"/>
  <path fill="#4B5B19" d="M54.25 35.144c-1.06.212-1.95.127-1.95.127l.127 1.931 1.824-2.058Z"/>
  <path fill="#6B7B3E" d="M54.578 36.71s-.391 1.297-.383 1.672l.01.376-1.45.009s.307-1.189.338-1.188c.03 0 1.485-.87 1.485-.87Z"/>
  <path fill="#4B5B19" d="M54.579 36.71c-1.061.212-1.95.127-1.95.127l.126 1.93 1.824-2.058Z"/>
  <path fill="#6B7B3E" d="M53.295 31.51s-.391 1.298-.383 1.673l.01.376-1.451.009s.308-1.189.339-1.188c.03 0 1.484-.87 1.484-.87h.001Z"/>
  <path fill="#4B5B19" d="M53.296 31.51c-1.062.213-1.951.127-1.951.127l.127 1.932 1.824-2.059Z"/>
  <path fill="#6B7B3E" d="M52.149 29.958s-.392 1.297-.384 1.673l.01.376-1.45.008s.308-1.188.338-1.188c.03 0 1.485-.87 1.485-.87Z"/>
  <path fill="#4B5B19" d="M52.15 29.958c-1.062.213-1.952.127-1.952.127l.128 1.931 1.823-2.058Z"/>
  <path fill="#6B7B3E" d="M53.947 29.96s-.64 1.194-.704 1.565l-.065.37-1.424-.276s.535-1.105.565-1.098c.03.006 1.628-.562 1.628-.562Z"/>
  <path fill="#4B5B19" d="M53.947 29.96c-1.083 0-1.939-.26-1.939-.26l-.255 1.918 2.194-1.659Z"/>
  <path fill="#6B7B3E" d="M52.633 28.07s-.347 1.31-.324 1.685l.023.375-1.45.06s.265-1.198.297-1.198c.03 0 1.454-.922 1.454-.922Z"/>
  <path fill="#4B5B19" d="M52.633 28.07c-1.052.25-1.945.195-1.945.195l.196 1.926 1.75-2.121Z"/>
  <path fill="#6B7B3E" d="M50.64 26.304s-.003 1.356.114 1.713l.117.356-1.388.425s-.046-1.226-.016-1.234c.03-.008 1.174-1.26 1.174-1.26Z"/>
  <path fill="#4B5B19" d="M50.64 26.304a7.407 7.407 0 0 1-1.832.681l.675 1.813 1.158-2.494Z"/>
  <path fill="#6B7B3E" d="M49.197 25.536s-.2 1.341-.136 1.711l.065.37-1.435.22s.132-1.22.163-1.224c.03-.004 1.343-1.077 1.343-1.077Z"/>
  <path fill="#4B5B19" d="M49.197 25.536a7.412 7.412 0 0 1-1.913.409l.407 1.892 1.505-2.3Z"/>
  <path fill="#6B7B3E" d="M47.097 24.465s.116 1.35.263 1.696l.148.345-1.345.545s-.152-1.217-.124-1.228c.03-.01 1.058-1.358 1.058-1.358Z"/>
  <path fill="#4B5B19" d="M47.1 24.465a7.381 7.381 0 0 1-1.766.84l.832 1.746.934-2.587Z"/>
  <path fill="#6B7B3E" d="M57.753 52.77s-1.346.158-1.687.317l-.34.158-.588-1.327s1.213-.191 1.224-.163c.012.028 1.39 1.015 1.39 1.015Z"/>
  <path fill="#4B5B19" d="M57.754 52.77c-.62-.888-.895-1.738-.895-1.738l-1.72.886 2.614.852Z"/>
  <path fill="#6B7B3E" d="M58.37 50.341s-1.274.464-1.569.698l-.294.232-.878-1.156s1.135-.466 1.153-.442c.017.026 1.588.666 1.588.666v.002Z"/>
  <path fill="#4B5B19" d="M58.37 50.341c-.806-.721-1.27-1.485-1.27-1.485l-1.47 1.26 2.74.225Z"/>
  <path fill="#6B7B3E" d="M58.747 47.83s-1.115.771-1.341 1.071l-.226.3-1.142-.896s.981-.738 1.004-.718c.024.02 1.705.243 1.705.243Z"/>
  <path fill="#4B5B19" d="M58.748 47.83c-.963-.493-1.606-1.116-1.606-1.116l-1.103 1.591 2.709-.475Z"/>
  <path fill="#6B7B3E" d="M58.845 45.858s-1.244.537-1.525.787l-.281.25-.943-1.102s1.106-.532 1.125-.507c.019.023 1.623.575 1.623.575l.001-.003Z"/>
  <path fill="#4B5B19" d="M58.846 45.858C58 45.186 57.49 44.45 57.49 44.45l-1.393 1.342 2.749.066v.001Z"/>
  <path fill="#6B7B3E" d="M57.245 45.398s-1.244.536-1.526.787l-.28.249-.943-1.102s1.107-.532 1.125-.507c.019.023 1.623.574 1.623.574v-.001Z"/>
  <path fill="#4B5B19" d="M57.245 45.398c-.848-.674-1.356-1.41-1.356-1.41l-1.394 1.343 2.75.067Z"/>
  <path fill="#6B7B3E" d="M55.923 43.985s-1.244.537-1.525.787l-.281.25-.943-1.102s1.107-.532 1.125-.507c.019.023 1.623.575 1.623.575l.002-.003Z"/>
  <path fill="#4B5B19" d="M55.925 43.985a7.405 7.405 0 0 1-1.357-1.41l-1.393 1.343 2.749.066v.001Z"/>
  <path fill="#6B7B3E" d="M57.695 47.166s-1.244.537-1.525.788l-.282.25-.943-1.103s1.107-.532 1.125-.507c.019.025 1.624.575 1.624.575l.001-.003Z"/>
  <path fill="#4B5B19" d="M57.695 47.166c-.847-.672-1.355-1.41-1.355-1.41L54.947 47.1l2.748.066v.001Z"/>
  <path fill="#6B7B3E" d="M57.157 49.319s-1.244.536-1.525.787l-.28.249-.944-1.102s1.107-.532 1.125-.507c.02.023 1.624.574 1.624.574v-.001Z"/>
  <path fill="#4B5B19" d="M57.158 49.319c-.848-.674-1.355-1.41-1.355-1.41L54.41 49.25l2.749.067h-.001Z"/>
  <path fill="#6B7B3E" d="M56.855 51.313s-1.244.537-1.525.787l-.282.25-.943-1.102s1.107-.532 1.126-.507c.018.023 1.623.574 1.623.574l.001-.002Z"/>
  <path fill="#4B5B19" d="M56.855 51.313c-.847-.673-1.355-1.41-1.355-1.41l-1.393 1.342 2.748.066v.002Z"/>
  <path fill="#6B7B3E" d="M58.665 43.649s-1.087.81-1.302 1.117l-.216.307-1.172-.855s.954-.773.978-.754c.024.02 1.713.184 1.713.184l-.001.001Z"/>
  <path fill="#4B5B19" d="M58.664 43.649a7.422 7.422 0 0 1-1.644-1.059l-1.045 1.628 2.69-.57v.001Z"/>
  <path fill="#6B7B3E" d="M58.541 41.583s-.846 1.058-.977 1.41l-.131.352-1.35-.531s.727-.988.755-.976c.028.013 1.703-.255 1.703-.255Z"/>
  <path fill="#4B5B19" d="M58.541 41.583a7.362 7.362 0 0 1-1.857-.608l-.6 1.84 2.46-1.232h-.003Z"/>
  <path fill="#6B7B3E" d="M57.977 40.019s-.99.925-1.171 1.254l-.18.33-1.26-.721s.862-.873.889-.856c.025.015 1.722-.007 1.722-.007Z"/>
  <path fill="#4B5B19" d="M57.977 40.019c-1.025-.35-1.751-.87-1.751-.87l-.86 1.733 2.61-.863Z"/>
  <path fill="#6B7B3E" d="M57.242 37.742s-.751 1.128-.85 1.49l-.1.363-1.39-.41s.637-1.049.666-1.04c.03.01 1.674-.403 1.674-.403Z"/>
  <path fill="#4B5B19" d="M57.242 37.742a7.416 7.416 0 0 1-1.904-.444l-.437 1.886 2.34-1.442Z"/>
  <path fill="#6B7B3E" d="M56.26 55s-1.338-.216-1.709-.157l-.37.06-.204-1.438s1.22.146 1.221.176c.004.031 1.062 1.357 1.062 1.357v.001Z"/>
  <path fill="#4B5B19" d="M56.26 55c-.353-1.023-.386-1.918-.386-1.918l-1.897.385 2.283 1.532Z"/>
  <path fill="#6B7B3E" d="M56.216 38.1s-1.05.855-1.254 1.172l-.202.317-1.208-.806s.92-.811.946-.794c.025.017 1.718.11 1.718.11Z"/>
  <path fill="#4B5B19" d="M56.218 38.1c-1-.418-1.688-.989-1.688-.989l-.976 1.672 2.663-.683Z"/>
  <path fill="#6B7B3E" d="M55.638 35.777s-.826 1.074-.95 1.43l-.124.355-1.361-.504s.708-1.003.737-.991c.028.01 1.696-.289 1.696-.289h.002Z"/>
  <path fill="#4B5B19" d="M55.638 35.777c-1.068-.175-1.87-.571-1.87-.571l-.564 1.851 2.434-1.28Z"/>
  <path fill="#6B7B3E" d="M55.296 54.963s-1.355.014-1.71.136l-.355.122-.444-1.381s1.226-.063 1.235-.034c.008.029 1.275 1.157 1.275 1.157Z"/>
  <path fill="#4B5B19" d="M55.297 54.963c-.522-.948-.706-1.824-.706-1.824l-1.804.7 2.51 1.122v.002Z"/>
  <path fill="#6B7B3E" d="M56.17 52.613s-1.316.328-1.634.528l-.318.2-.75-1.242s1.178-.343 1.193-.317c.014.026 1.508.831 1.508.831Z"/>
  <path fill="#4B5B19" d="M56.17 52.613a7.352 7.352 0 0 1-1.107-1.612L53.468 52.1l2.702.514Z"/>
  <path fill="#6B7B3E" d="M56.809 50.157s-1.19.649-1.447.922l-.257.274-1.04-1.012s1.053-.63 1.073-.608c.021.022 1.67.423 1.67.423Z"/>
  <path fill="#4B5B19" d="M56.81 50.157c-.905-.593-1.48-1.28-1.48-1.28l-1.264 1.465 2.743-.185Z"/>
  <path fill="#6B7B3E" d="M57.15 48.426s-1.293.402-1.6.62l-.305.219-.821-1.197s1.156-.41 1.173-.385c.018.026 1.553.743 1.553.743Z"/>
  <path fill="#4B5B19" d="M57.15 48.426a7.397 7.397 0 0 1-1.198-1.546l-1.528 1.188 2.726.358Z"/>
  <path fill="#6B7B3E" d="M57.206 46.21s-1.166.69-1.414.973l-.246.283-1.075-.975s1.03-.667 1.052-.646c.022.02 1.684.364 1.684.364h-.001Z"/>
  <path fill="#4B5B19" d="M57.205 46.21c-.925-.562-1.523-1.227-1.523-1.227L54.47 46.49l2.735-.282Z"/>
  <path fill="#6B7B3E" d="M57.264 43.922s-.954.962-1.12 1.3l-.168.335-1.286-.67s.828-.906.854-.892c.027.015 1.72-.073 1.72-.073Z"/>
  <path fill="#4B5B19" d="M57.265 43.922c-1.037-.31-1.784-.801-1.784-.801l-.791 1.764 2.575-.963Z"/>
  <path fill="#6B7B3E" d="M56.871 42.308s-1.083.814-1.297 1.123l-.215.309-1.176-.85s.95-.776.975-.758c.024.018 1.713.176 1.713.176Z"/>
  <path fill="#4B5B19" d="M56.87 42.308c-.981-.455-1.648-1.051-1.648-1.051l-1.04 1.633 2.688-.582Z"/>
  <path fill="#6B7B3E" d="M56.379 39.965s-.865 1.042-1.003 1.392l-.137.35-1.34-.556s.746-.975.773-.961c.028.012 1.708-.224 1.708-.224l-.001-.002Z"/>
  <path fill="#4B5B19" d="M56.378 39.965a7.44 7.44 0 0 1-1.847-.642l-.633 1.828 2.48-1.187Z"/>
  <path fill="#6B7B3E" d="M53.578 57.022s-1.307-.356-1.683-.337l-.375.02-.05-1.45s1.197.275 1.197.305c0 .03.91 1.46.91 1.46l.001.002Z"/>
  <path fill="#4B5B19" d="M53.578 57.022c-.242-1.055-.181-1.947-.181-1.947l-1.926.18 2.107 1.767Z"/>
  <path fill="#6B7B3E" d="M53.614 35.05s-.946.969-1.112 1.307l-.165.337-1.29-.662s.821-.912.848-.897c.026.015 1.719-.087 1.719-.087v.002Z"/>
  <path fill="#4B5B19" d="M53.614 35.05a7.438 7.438 0 0 1-1.79-.789l-.778 1.771 2.568-.982Z"/>
  <path fill="#6B7B3E" d="M52.771 32.809s-.697 1.162-.78 1.529l-.082.366-1.408-.346s.59-1.076.618-1.067c.03.008 1.653-.481 1.653-.481v-.001Z"/>
  <path fill="#4B5B19" d="M52.772 32.809a7.426 7.426 0 0 1-1.923-.354l-.35 1.903 2.274-1.548-.001-.001Z"/>
  <path fill="#6B7B3E" d="M54.629 51.908s-1.345.17-1.685.331l-.338.162-.6-1.322s1.212-.202 1.223-.174c.012.028 1.4 1.003 1.4 1.003Z"/>
  <path fill="#4B5B19" d="M54.628 51.908a7.37 7.37 0 0 1-.91-1.731l-1.712.901 2.622.83Z"/>
  <path fill="#6B7B3E" d="M55.225 49.475s-1.27.475-1.563.71l-.292.236-.888-1.148s1.131-.477 1.15-.452c.017.026 1.593.654 1.593.654Z"/>
  <path fill="#4B5B19" d="M55.226 49.475c-.813-.714-1.285-1.474-1.285-1.474l-1.458 1.272 2.743.202Z"/>
  <path fill="#6B7B3E" d="M55.581 46.96s-1.108.78-1.332 1.083l-.223.302-1.148-.886s.974-.746.997-.728c.024.02 1.707.23 1.707.23h-.001Z"/>
  <path fill="#4B5B19" d="M55.582 46.96c-.968-.486-1.615-1.102-1.615-1.102l-1.09 1.6 2.705-.498Z"/>
  <path fill="#6B7B3E" d="M55.723 45.203s-1.24.547-1.519.799l-.279.251-.952-1.094s1.102-.541 1.121-.517c.019.023 1.629.56 1.629.56Z"/>
  <path fill="#4B5B19" d="M55.723 45.203c-.853-.666-1.368-1.398-1.368-1.398l-1.382 1.355 2.75.043Z"/>
  <path fill="#6B7B3E" d="M55.52 42.994s-1.08.82-1.293 1.129l-.213.31-1.18-.846s.948-.78.971-.762c.024.019 1.714.17 1.714.17Z"/>
  <path fill="#4B5B19" d="M55.52 42.994a7.369 7.369 0 0 1-1.653-1.044l-1.032 1.637 2.686-.593Z"/>
  <path fill="#6B7B3E" d="M55.322 40.714s-.838 1.065-.966 1.418l-.129.353-1.354-.519s.72-.994.747-.982c.028.013 1.7-.27 1.7-.27h.002Z"/>
  <path fill="#4B5B19" d="M55.322 40.714c-1.066-.188-1.863-.593-1.863-.593l-.585 1.844 2.448-1.251Z"/>
  <path fill="#6B7B3E" d="M54.746 39.155s-.983.934-1.16 1.265l-.179.331-1.265-.71s.855-.88.881-.865c.026.016 1.722-.02 1.722-.02h.001Z"/>
  <path fill="#4B5B19" d="M54.747 39.155a7.396 7.396 0 0 1-1.758-.856l-.845 1.741 2.603-.885Z"/>
  <path fill="#6B7B3E" d="M53.99 36.884s-.742 1.135-.838 1.498l-.096.363-1.396-.399s.63-1.054.659-1.044c.029.009 1.67-.418 1.67-.418Z"/>
  <path fill="#4B5B19" d="M53.989 36.884c-1.078-.094-1.909-.427-1.909-.427l-.42 1.889 2.329-1.462Z"/>
  <path fill="#6B7B3E" d="M53.154 54.15s-1.339-.204-1.71-.142l-.37.063-.215-1.434s1.22.136 1.223.165c.004.03 1.072 1.348 1.072 1.348Z"/>
  <path fill="#4B5B19" d="M53.154 54.15c-.362-1.02-.403-1.913-.403-1.913l-1.894.4 2.296 1.514.001-.001Z"/>
  <path fill="#6B7B3E" d="M52.462 34.316s-.947.97-1.113 1.307l-.164.337-1.291-.661s.822-.913.848-.898c.027.015 1.72-.086 1.72-.086v.001Z"/>
  <path fill="#4B5B19" d="M52.462 34.316c-1.04-.302-1.79-.788-1.79-.788l-.778 1.77 2.568-.982Z"/>
  <path fill="#6B7B3E" d="M51.62 32.076s-.696 1.162-.78 1.53l-.081.366-1.409-.346s.59-1.077.618-1.068c.03.008 1.653-.48 1.653-.48v-.002Z"/>
  <path fill="#4B5B19" d="M51.621 32.076a7.409 7.409 0 0 1-1.922-.354l-.35 1.904 2.273-1.549Z"/>
  <path fill="#6B7B3E" d="M53.476 51.174s-1.345.169-1.684.331l-.339.162-.599-1.322s1.212-.202 1.223-.174c.012.028 1.4 1.003 1.4 1.003Z"/>
  <path fill="#4B5B19" d="M53.476 51.174a7.386 7.386 0 0 1-.91-1.731l-1.713.9 2.622.83.001.001Z"/>
  <path fill="#6B7B3E" d="M54.073 48.741s-1.27.475-1.563.71l-.293.236-.887-1.148s1.131-.477 1.15-.452c.017.026 1.593.654 1.593.654Z"/>
  <path fill="#4B5B19" d="M54.074 48.741c-.814-.714-1.285-1.474-1.285-1.474l-1.458 1.272 2.742.202Z"/>
  <path fill="#6B7B3E" d="M54.429 46.227s-1.109.78-1.332 1.082l-.223.302-1.149-.886s.975-.746.998-.727c.024.02 1.706.23 1.706.23v-.001Z"/>
  <path fill="#4B5B19" d="M54.43 46.227c-.968-.486-1.616-1.103-1.616-1.103l-1.089 1.6 2.704-.497Z"/>
  <path fill="#6B7B3E" d="M54.57 44.47s-1.24.547-1.518.798l-.28.252-.952-1.095s1.102-.54 1.122-.516c.019.023 1.629.56 1.629.56Z"/>
  <path fill="#4B5B19" d="M54.57 44.47c-.852-.667-1.367-1.398-1.367-1.398l-1.382 1.354 2.75.043Z"/>
  <path fill="#6B7B3E" d="M54.37 42.261s-1.08.82-1.293 1.128l-.214.31-1.179-.845s.948-.78.971-.762c.024.018 1.713.17 1.713.17h.002Z"/>
  <path fill="#4B5B19" d="M54.37 42.261a7.369 7.369 0 0 1-1.653-1.044l-1.032 1.637 2.685-.593Z"/>
  <path fill="#6B7B3E" d="M53.302 47.53s-1.109.78-1.332 1.083l-.223.302-1.148-.886s.974-.747.997-.728c.024.02 1.706.23 1.706.23Z"/>
  <path fill="#4B5B19" d="M53.302 47.53a7.41 7.41 0 0 1-1.615-1.102l-1.088 1.6 2.703-.498Z"/>
  <path fill="#6B7B3E" d="M51.815 49.103s-1.108.78-1.331 1.082l-.224.302-1.148-.886s.974-.746.998-.727c.023.02 1.706.23 1.706.23v-.001Z"/>
  <path fill="#4B5B19" d="M51.816 49.103C50.849 48.617 50.201 48 50.201 48l-1.089 1.6 2.704-.497Z"/>
  <path fill="#6B7B3E" d="M53.444 45.773s-1.24.547-1.52.799l-.278.251-.953-1.095s1.102-.54 1.122-.516c.019.023 1.629.56 1.629.56Z"/>
  <path fill="#4B5B19" d="M53.443 45.773c-.852-.666-1.367-1.398-1.367-1.398l-1.382 1.355 2.75.043Z"/>
  <path fill="#6B7B3E" d="M53.243 43.565s-1.08.82-1.293 1.129l-.214.31-1.179-.846s.948-.78.971-.762c.023.019 1.714.17 1.714.17Z"/>
  <path fill="#4B5B19" d="M53.243 43.565a7.369 7.369 0 0 1-1.653-1.044l-1.033 1.636 2.686-.593v.001Z"/>
  <path fill="#6B7B3E" d="M54.168 39.981s-.837 1.066-.966 1.419l-.128.353-1.355-.52s.72-.994.747-.982c.028.012 1.7-.27 1.7-.27h.002Z"/>
  <path fill="#4B5B19" d="M54.17 39.981c-1.066-.188-1.864-.592-1.864-.592l-.584 1.844 2.448-1.252Z"/>
  <path fill="#6B7B3E" d="M53.595 38.423s-.983.933-1.16 1.264l-.178.331-1.266-.71s.856-.88.882-.865c.025.016 1.722-.02 1.722-.02Z"/>
  <path fill="#4B5B19" d="M53.595 38.423c-1.027-.34-1.758-.857-1.758-.857l-.845 1.742 2.603-.885Z"/>
  <path fill="#6B7B3E" d="M52.839 36.152s-.74 1.134-.837 1.497l-.097.363-1.395-.398s.63-1.055.659-1.045c.028.01 1.67-.417 1.67-.417Z"/>
  <path fill="#4B5B19" d="M52.838 36.152c-1.078-.094-1.908-.427-1.908-.427l-.42 1.889 2.328-1.462Z"/>
  <path fill="#6B7B3E" d="M52.004 53.417s-1.34-.204-1.71-.141l-.37.063-.216-1.435s1.22.137 1.223.166c.005.03 1.073 1.347 1.073 1.347Z"/>
  <path fill="#4B5B19" d="M52.005 53.417c-.362-1.02-.402-1.913-.402-1.913l-1.894.4 2.296 1.513Z"/>
  <path fill="#6B7B3E" d="M40.986 63.347s-.718-1.15-1.006-1.39l-.29-.24.95-1.097s.69 1.014.67 1.035c-.02.022-.322 1.692-.322 1.692h-.002Z"/>
  <path fill="#4B5B19" d="M40.987 63.347a7.403 7.403 0 0 1 1.19-1.552l-1.538-1.175.348 2.728v-.001Z"/>
  <path fill="#6B7B3E" d="M43.357 63.412s-.964-.953-1.301-1.12l-.337-.166.67-1.288s.907.827.892.854c-.015.026.076 1.72.076 1.72Z"/>
  <path fill="#4B5B19" d="M43.358 63.412a7.399 7.399 0 0 1 .799-1.785l-1.766-.79.968 2.574h-.001Z"/>
  <path fill="#6B7B3E" d="M45.5 63.107s-1.173-.679-1.541-.755l-.367-.077.321-1.415s1.087.571 1.079.601c-.008.03.508 1.645.508 1.645Z"/>
  <path fill="#4B5B19" d="M45.502 63.107a7.391 7.391 0 0 1 .322-1.928l-1.91-.317 1.587 2.246v-.001Z"/>
  <path fill="#6B7B3E" d="M47.182 62.965s-1.181-.664-1.55-.736l-.37-.073.306-1.42s1.093.559 1.086.589c-.007.029.527 1.64.527 1.64h.001Z"/>
  <path fill="#4B5B19" d="M47.182 62.965c.022-1.082.3-1.932.3-1.932l-1.914-.295 1.614 2.227Z"/>
  <path fill="#6B7B3E" d="M50.578 61.158s-1.196-.636-1.567-.7l-.37-.063.272-1.425s1.106.533 1.099.563c-.007.03.566 1.627.566 1.627v-.002Z"/>
  <path fill="#4B5B19" d="M50.58 61.158c-.004-1.083.254-1.94.254-1.94l-1.92-.25 1.665 2.19Z"/>
  <path fill="#6B7B3E" d="M49.21 62.242s-1.197-.635-1.568-.7l-.37-.062.273-1.426s1.105.533 1.099.563c-.007.03.566 1.626.566 1.626Z"/>
  <path fill="#4B5B19" d="M49.21 62.242c-.004-1.082.255-1.939.255-1.939l-1.92-.25 1.665 2.19Z"/>
  <path fill="#6B7B3E" d="M52.418 59.674s-1.319-.313-1.693-.281l-.374.032-.097-1.448s1.205.236 1.206.266c.002.031.959 1.432.959 1.432l-.001-.001Z"/>
  <path fill="#4B5B19" d="M52.418 59.674c-.277-1.047-.245-1.94-.245-1.94l-1.92.243 2.165 1.697Z"/>
  <path fill="#6B7B3E" d="M53.764 58.143s-1.34-.204-1.711-.142l-.37.063-.215-1.434s1.22.136 1.223.165c.004.03 1.073 1.348 1.073 1.348Z"/>
  <path fill="#4B5B19" d="M53.764 58.143c-.361-1.02-.401-1.914-.401-1.914l-1.894.4 2.295 1.514Z"/>
  <path fill="#6B7B3E" d="M55.044 56.712s-1.342-.196-1.711-.13l-.37.064-.224-1.434s1.22.13 1.225.16c.004.03 1.08 1.34 1.08 1.34Z"/>
  <path fill="#4B5B19" d="M55.043 56.712a7.403 7.403 0 0 1-.414-1.911l-1.89.411 2.304 1.5Z"/>
  <path fill="#6B7B3E" d="M38.477 62.729s-.306-1.32-.502-1.641l-.197-.321 1.253-.732s.326 1.184.298 1.198c-.026.014-.854 1.495-.854 1.495h.002Z"/>
  <path fill="#4B5B19" d="M38.476 62.729a7.444 7.444 0 0 1 1.628-1.084l-1.073-1.61-.554 2.692v.002Z"/>
  <path fill="#261C02" d="m43.367 22.32 1.351.307.016-.624-1.367.317Zm-.515-2.987s.63.31 1.27.295c.64-.013.587-.272.587-.272l-.08-.437s-.268.27-.666.35c-.4.082-1.111.063-1.111.063v.001Zm.491 2.229s.629.31 1.269.295c.64-.013.587-.272.587-.272l-.08-.436s-.268.27-.666.35c-.4.081-1.111.062-1.111.062v.001Z"/>
  <path fill="#6B7B3E" d="M48.932 60.769s-1.197-.636-1.567-.7l-.37-.063.272-1.424s1.105.532 1.098.562c-.006.03.567 1.627.567 1.627v-.002Z"/>
  <path fill="#4B5B19" d="M48.933 60.769c-.004-1.082.254-1.94.254-1.94l-1.92-.249 1.666 2.189Z"/>
  <path fill="#6B7B3E" d="M47.432 61.46s-1.197-.635-1.567-.699l-.37-.063.272-1.425s1.105.533 1.098.563c-.006.03.567 1.627.567 1.627v-.002Z"/>
  <path fill="#4B5B19" d="M47.433 61.46c-.004-1.081.254-1.938.254-1.938l-1.92-.25 1.665 2.188Z"/>
  <path fill="#6B7B3E" d="M45.692 61.801s-1.197-.636-1.568-.7l-.37-.063.272-1.424s1.106.533 1.1.563c-.007.03.565 1.626.565 1.626V61.8Z"/>
  <path fill="#4B5B19" d="M45.693 61.801c-.004-1.082.254-1.94.254-1.94l-1.92-.249 1.666 2.19Z"/>
  <path fill="#6B7B3E" d="M43.995 62.01s-1.197-.636-1.568-.7l-.37-.064.272-1.424s1.106.533 1.099.563c-.007.03.566 1.626.566 1.626v-.002Z"/>
  <path fill="#4B5B19" d="M43.995 62.01c-.003-1.083.255-1.94.255-1.94l-1.92-.25 1.665 2.19Z"/>
  <path fill="#6B7B3E" d="M41.85 62.013s-.696-1.163-.98-1.409l-.285-.246.97-1.078s.672 1.027.65 1.05c-.02.021-.356 1.684-.356 1.684l.001-.001Z"/>
  <path fill="#4B5B19" d="M41.85 62.013c.556-.928 1.22-1.529 1.22-1.529l-1.515-1.205.295 2.734Z"/>
  <path fill="#6B7B3E" d="M51.799 51.458s-1.334.24-1.664.42l-.33.18-.668-1.288s1.198-.265 1.211-.239c.013.028 1.451.928 1.451.928v-.001Z"/>
  <path fill="#4B5B19" d="M51.799 51.458c-.673-.849-1-1.68-1-1.68l-1.662.992 2.662.688Z"/>
  <path fill="#6B7B3E" d="M51.598 47.015s-1.204.62-1.467.89l-.263.267-1.016-1.036s1.068-.606 1.087-.583c.021.022 1.659.46 1.659.46v.002Z"/>
  <path fill="#4B5B19" d="M51.598 47.015a7.416 7.416 0 0 1-1.45-1.313l-1.298 1.435 2.748-.122Z"/>
  <path fill="#6B7B3E" d="M51.669 43.086s-1.205.621-1.468.89l-.263.268-1.016-1.036s1.068-.606 1.088-.584c.02.022 1.659.46 1.659.46v.002Z"/>
  <path fill="#4B5B19" d="M51.668 43.086c-.892-.613-1.45-1.313-1.45-1.313L48.92 43.21l2.748-.123Z"/>
  <path fill="#6B7B3E" d="M51.665 40.526s-1.205.621-1.468.89l-.263.268-1.016-1.036s1.068-.606 1.088-.584c.02.022 1.658.461 1.658.461v.001Z"/>
  <path fill="#4B5B19" d="M51.664 40.526a7.39 7.39 0 0 1-1.45-1.313l-1.298 1.435 2.748-.122Z"/>
  <path fill="#6B7B3E" d="M52.165 42.06s-1.205.621-1.468.89l-.263.268-1.016-1.036s1.068-.606 1.088-.584c.02.023 1.658.461 1.658.461v.001Z"/>
  <path fill="#4B5B19" d="M52.164 42.06c-.892-.613-1.45-1.313-1.45-1.313l-1.298 1.436 2.748-.123Z"/>
  <path fill="#6B7B3E" d="M51.718 38.554s-1.205.621-1.468.89l-.263.268-1.016-1.037s1.068-.605 1.088-.583c.02.022 1.658.46 1.658.46v.002Z"/>
  <path fill="#4B5B19" d="M51.717 38.554a7.416 7.416 0 0 1-1.45-1.313l-1.298 1.435 2.748-.122Z"/>
  <path fill="#6B7B3E" d="M51.594 36.573s-1.204.621-1.467.89l-.263.268-1.016-1.036s1.068-.606 1.088-.584c.02.023 1.658.461 1.658.461v.001Z"/>
  <path fill="#4B5B19" d="M51.594 36.573a7.395 7.395 0 0 1-1.45-1.312l-1.298 1.435 2.748-.123Z"/>
  <path fill="#6B7B3E" d="M50.05 53.159s-1.333.24-1.663.42l-.33.18-.668-1.288s1.198-.265 1.211-.239c.013.028 1.451.928 1.451.928v-.001Z"/>
  <path fill="#4B5B19" d="M50.05 53.159c-.671-.848-1-1.68-1-1.68l-1.661.992 2.662.688Z"/>
  <path fill="#6B7B3E" d="M47.045 57.743s-1.267-.483-1.642-.5l-.375-.019.095-1.447s1.163.391 1.16.422c-.003.03.763 1.543.763 1.543Z"/>
  <path fill="#4B5B19" d="M47.046 57.743a7.365 7.365 0 0 1 .012-1.956l-1.935-.01 1.924 1.965h-.001Z"/>
  <path fill="#6B7B3E" d="M44.356 60.35s-1.267-.483-1.642-.5l-.375-.019.094-1.447s1.164.391 1.16.422c-.002.03.764 1.543.764 1.543h-.001Z"/>
  <path fill="#4B5B19" d="M44.356 60.35a7.416 7.416 0 0 1 .012-1.956l-1.934-.01 1.922 1.966Z"/>
  <path fill="#6B7B3E" d="M49.133 54.955s-1.334.24-1.664.42l-.33.18-.668-1.288s1.198-.265 1.211-.239c.013.028 1.451.928 1.451.928v-.001Z"/>
  <path fill="#4B5B19" d="M49.133 54.955a7.41 7.41 0 0 1-1-1.68l-1.662.992 2.662.688Z"/>
  <path fill="#6B7B3E" d="M48.28 56.357s-1.334.24-1.665.42l-.33.18-.668-1.288s1.2-.266 1.212-.238c.012.027 1.45.927 1.45.927v-.001Z"/>
  <path fill="#4B5B19" d="M48.28 56.357c-.672-.848-1-1.68-1-1.68l-1.663.991 2.662.688v.001Z"/>
  <path fill="#6B7B3E" d="M50.309 59.37s-1.197-.636-1.567-.7l-.37-.064.273-1.425s1.105.533 1.098.563c-.006.03.567 1.626.567 1.626h-.001Z"/>
  <path fill="#4B5B19" d="M50.31 59.37c-.004-1.083.254-1.94.254-1.94l-1.92-.25 1.666 2.19Z"/>
  <path fill="#6B7B3E" d="M51.903 58.137s-1.324-.286-1.698-.246l-.373.04-.127-1.446s1.21.212 1.211.242c.001.03.987 1.41.987 1.41Z"/>
  <path fill="#4B5B19" d="M51.903 58.137c-.298-1.04-.284-1.934-.284-1.934l-1.914.282 2.198 1.652Z"/>
  <path fill="#6B7B3E" d="M52.08 56.547s-1.325-.285-1.699-.246l-.373.04-.127-1.446s1.21.212 1.21.243c.002.03.987 1.41.987 1.41h.001Z"/>
  <path fill="#4B5B19" d="M52.079 56.547c-.298-1.04-.284-1.934-.284-1.934l-1.914.282 2.198 1.652Z"/>
  <path fill="#6B7B3E" d="M54.077 53.398s-1.324-.286-1.698-.246l-.373.04-.127-1.446s1.21.212 1.21.242c.002.031.988 1.41.988 1.41Z"/>
  <path fill="#4B5B19" d="M54.077 53.398c-.298-1.04-.284-1.934-.284-1.934l-1.914.282 2.198 1.652Z"/>
  <path fill="#6B7B3E" d="M52.98 55.362s-1.325-.286-1.698-.246l-.374.04-.127-1.446s1.21.212 1.211.242c.002.03.988 1.41.988 1.41Z"/>
  <path fill="#4B5B19" d="M52.98 55.362c-.299-1.04-.284-1.934-.284-1.934l-1.915.282 2.198 1.652Z"/>
  <path fill="#6B7B3E" d="M51 54.914s-1.325-.286-1.699-.247l-.373.04-.127-1.445s1.21.211 1.21.242c.002.03.988 1.41.988 1.41Z"/>
  <path fill="#4B5B19" d="M50.999 54.914c-.298-1.041-.284-1.935-.284-1.935l-1.914.283 2.198 1.652Z"/>
  <path fill="#6B7B3E" d="M50.29 56.686s-1.325-.286-1.698-.246l-.373.04-.127-1.446s1.21.212 1.21.242c.002.031.989 1.411.989 1.411Z"/>
  <path fill="#4B5B19" d="M50.29 56.686c-.298-1.04-.284-1.934-.284-1.934l-1.914.282 2.198 1.652Z"/>
  <path fill="#6B7B3E" d="M49.362 58.186s-1.324-.286-1.698-.246l-.373.04-.127-1.446s1.21.212 1.211.242c.001.031.987 1.41.987 1.41Z"/>
  <path fill="#4B5B19" d="M49.362 58.186c-.298-1.04-.284-1.934-.284-1.934l-1.914.282 2.198 1.652Z"/>
  <path fill="#6B7B3E" d="M47.805 59.85s-1.228-.571-1.602-.615l-.374-.044.197-1.438s1.133.473 1.127.503c-.005.03.651 1.594.651 1.594Z"/>
  <path fill="#4B5B19" d="M47.805 59.85c-.059-1.08.152-1.948.152-1.948l-1.93-.148 1.777 2.098.001-.001Z"/>
  <path fill="#6B7B3E" d="M46.479 60.611s-1.229-.572-1.602-.616l-.374-.044.197-1.438s1.133.474 1.127.503c-.005.03.651 1.595.651 1.595Z"/>
  <path fill="#4B5B19" d="M46.48 60.612a7.423 7.423 0 0 1 .151-1.95l-1.93-.148 1.777 2.098h.001Z"/>
  <path fill="#6B7B3E" d="M35.816 28.26s1.163.465 1.509.486l.345.02-.107 1.336s-1.068-.378-1.066-.406c.004-.027-.682-1.434-.682-1.434l.002-.001Z"/>
  <path fill="#4B5B19" d="M35.817 28.26c.112.993-.039 1.805-.039 1.805l1.787.036-1.747-1.84Z"/>
  <path fill="#6B7B3E" d="M31.693 33.002s1.25.053 1.584-.043l.333-.094.342 1.294s-1.133-.002-1.14-.03c-.006-.026-1.119-1.127-1.119-1.127Z"/>
  <path fill="#4B5B19" d="M31.692 33.002c.435.9.561 1.715.561 1.715l1.697-.557-2.258-1.158Z"/>
  <path fill="#6B7B3E" d="M32.764 31.303s1.25.053 1.584-.042l.333-.095.342 1.295s-1.134-.003-1.14-.03c-.006-.027-1.12-1.128-1.12-1.128Z"/>
  <path fill="#4B5B19" d="M32.763 31.303a6.8 6.8 0 0 1 .56 1.716l1.697-.558-2.257-1.158Z"/>
  <path fill="#6B7B3E" d="M34.17 29.666s1.226.25 1.57.209l.344-.041.134 1.333s-1.118-.181-1.12-.21c-.001-.027-.927-1.29-.927-1.29h-.001Z"/>
  <path fill="#4B5B19" d="M34.17 29.666c.288.957.285 1.783.285 1.783l1.763-.283-2.048-1.5Z"/>
  <path fill="#6B7B3E" d="M28.754 40.836s1.182-.41 1.458-.62l.275-.21.793 1.08s-1.056.413-1.071.39c-.016-.022-1.455-.64-1.455-.64Z"/>
  <path fill="#4B5B19" d="M28.754 40.836a6.842 6.842 0 0 1 1.15 1.39l1.375-1.14-2.525-.25Z"/>
  <path fill="#6B7B3E" d="M29.11 39.065s1.182-.41 1.457-.62l.276-.21.792 1.08s-1.056.413-1.07.39c-.016-.022-1.456-.64-1.456-.64Z"/>
  <path fill="#4B5B19" d="M29.11 39.065a6.842 6.842 0 0 1 1.15 1.39l1.375-1.14-2.526-.25Z"/>
  <path fill="#6B7B3E" d="M29.694 36.977s1.23-.231 1.533-.399l.303-.167.626 1.184s-1.104.254-1.117.229c-.012-.025-1.346-.846-1.346-.846h.001Z"/>
  <path fill="#4B5B19" d="M29.695 36.977c.626.779.935 1.544.935 1.544l1.527-.927-2.462-.617Z"/>
  <path fill="#6B7B3E" d="M30.623 34.997s1.246-.116 1.564-.255l.318-.138.512 1.236s-1.123.15-1.132.124c-.01-.026-1.262-.967-1.262-.967Z"/>
  <path fill="#4B5B19" d="M30.623 34.997c.552.834.788 1.624.788 1.624l1.607-.78-2.395-.844Z"/>
  <path fill="#6B7B3E" d="M28.535 42.76s1.183-.409 1.458-.619l.276-.21.792 1.08s-1.056.412-1.071.39c-.015-.023-1.455-.64-1.455-.64Z"/>
  <path fill="#4B5B19" d="M28.535 42.76a6.85 6.85 0 0 1 1.151 1.39l1.375-1.14-2.526-.25Z"/>
  <path fill="#6B7B3E" d="M28.24 44.865s1.056-.67 1.276-.94l.22-.267 1.02.867s-.932.645-.953.626c-.02-.019-1.563-.287-1.563-.287v.001Z"/>
  <path fill="#4B5B19" d="M28.24 44.865a6.866 6.866 0 0 1 1.442 1.088l1.074-1.427-2.515.34Z"/>
  <path fill="#6B7B3E" d="M28.48 47.31s.852-.916.997-1.23l.145-.316 1.206.581s-.737.86-.762.847c-.026-.013-1.585.118-1.585.118Z"/>
  <path fill="#4B5B19" d="M28.48 47.31a6.84 6.84 0 0 1 1.67.688l.678-1.653-2.348.965Z"/>
  <path fill="#6B7B3E" d="M28.98 48.736s.976-.783 1.164-1.075l.19-.29 1.109.75s-.854.744-.877.728c-.023-.016-1.586-.113-1.586-.113Z"/>
  <path fill="#4B5B19" d="M28.98 48.736a6.82 6.82 0 0 1 1.552.922l.911-1.537-2.463.615Z"/>
  <path fill="#6B7B3E" d="M29.503 50.884s.768-.987.884-1.314l.117-.327 1.252.473s-.66.922-.685.91c-.025-.01-1.568.258-1.568.258Z"/>
  <path fill="#4B5B19" d="M29.502 50.884a6.807 6.807 0 0 1 1.723.538l.53-1.706-2.253 1.168Z"/>
  <path fill="#6B7B3E" d="M30.314 52.928s.494-1.15.524-1.495l.03-.346 1.331.142s-.405 1.057-.433 1.054c-.028-.004-1.453.644-1.453.644l.001.002Z"/>
  <path fill="#4B5B19" d="M30.314 52.928a6.869 6.869 0 0 1 1.803.085l.082-1.784-1.885 1.698v.002Z"/>
  <path fill="#6B7B3E" d="M31.06 54.492s.71-1.03.807-1.363l.097-.333 1.278.4s-.605.958-.633.948c-.026-.009-1.55.347-1.55.347v.001Z"/>
  <path fill="#4B5B19" d="M31.059 54.492c.992.112 1.75.438 1.75.438l.433-1.733-2.183 1.295Z"/>
  <path fill="#6B7B3E" d="M32.067 56.362s.453-1.166.472-1.512l.017-.347 1.336.096s-.368 1.071-.395 1.069c-.028-.004-1.429.695-1.429.695Z"/>
  <path fill="#4B5B19" d="M32.066 56.362a6.836 6.836 0 0 1 1.805.022l.02-1.785-1.825 1.763Z"/>
  <path fill="#6B7B3E" d="M33.712 58.187s.144-1.243.073-1.582l-.07-.34 1.317-.245s-.086 1.13-.113 1.134c-.027.004-1.207 1.034-1.207 1.034v-.001Z"/>
  <path fill="#4B5B19" d="M33.712 58.187c.929-.368 1.751-.436 1.751-.436l-.432-1.733-1.32 2.169Z"/>
  <path fill="#6B7B3E" d="M34.96 59.04s.321-1.21.301-1.556l-.02-.346 1.338-.053s-.247 1.106-.276 1.106c-.028 0-1.343.849-1.343.849Z"/>
  <path fill="#4B5B19" d="M34.959 59.04c.972-.23 1.796-.178 1.796-.178l-.177-1.777-1.619 1.955Z"/>
  <path fill="#6B7B3E" d="M36.652 60.46s.033-1.25-.066-1.583l-.1-.332 1.29-.36s.014 1.133-.014 1.14c-.027.006-1.111 1.136-1.111 1.136Z"/>
  <path fill="#4B5B19" d="M36.652 60.46a6.847 6.847 0 0 1 1.706-.587l-.582-1.689-1.124 2.276Z"/>
  <path fill="#6B7B3E" d="M38.712 61.521s-.284-1.218-.465-1.514l-.18-.295 1.156-.676s.3 1.094.276 1.106c-.025.014-.788 1.38-.788 1.38Z"/>
  <path fill="#4B5B19" d="M38.712 61.521a6.818 6.818 0 0 1 1.502-.999l-.99-1.486-.513 2.486Z"/>
  <path fill="#6B7B3E" d="M37.115 28.368s1.163.464 1.508.485l.346.02-.107 1.336s-1.068-.378-1.066-.405c.004-.028-.682-1.435-.682-1.435l.001-.001Z"/>
  <path fill="#4B5B19" d="M37.116 28.368c.11.993-.039 1.804-.039 1.804l1.786.036-1.746-1.84h-.001Z"/>
  <path fill="#6B7B3E" d="M32.992 33.109s1.25.053 1.584-.043l.333-.094.342 1.294s-1.133-.002-1.14-.03c-.006-.026-1.119-1.127-1.119-1.127Z"/>
  <path fill="#4B5B19" d="M32.991 33.109a6.8 6.8 0 0 1 .561 1.715l1.697-.557-2.258-1.158Z"/>
  <path fill="#6B7B3E" d="M34.06 31.41s1.25.053 1.585-.042l.333-.095.341 1.295s-1.133-.003-1.139-.03c-.007-.027-1.12-1.128-1.12-1.128Z"/>
  <path fill="#4B5B19" d="M34.062 31.41a6.8 6.8 0 0 1 .56 1.716l1.697-.558-2.258-1.158Z"/>
  <path fill="#6B7B3E" d="M35.469 29.774s1.226.25 1.57.209l.344-.04.134 1.332s-1.118-.18-1.12-.209c-.003-.028-.928-1.29-.928-1.29v-.002Z"/>
  <path fill="#4B5B19" d="M35.47 29.774c.287.957.283 1.783.283 1.783l1.764-.283-2.048-1.5Z"/>
  <path fill="#6B7B3E" d="M30.053 40.943s1.182-.409 1.458-.62l.275-.21.792 1.08s-1.055.413-1.07.39c-.016-.022-1.455-.64-1.455-.64Z"/>
  <path fill="#4B5B19" d="M30.053 40.943c.733.678 1.15 1.39 1.15 1.39l1.375-1.14-2.525-.25Z"/>
  <path fill="#6B7B3E" d="M30.408 39.172s1.183-.41 1.458-.62l.276-.21.792 1.08s-1.056.413-1.071.39c-.015-.022-1.455-.64-1.455-.64Z"/>
  <path fill="#4B5B19" d="M30.408 39.172c.734.678 1.151 1.39 1.151 1.39l1.375-1.14-2.526-.25Z"/>
  <path fill="#6B7B3E" d="M30.993 37.084s1.23-.23 1.533-.399l.303-.167.625 1.184s-1.104.254-1.116.23c-.012-.026-1.346-.847-1.346-.847h.001Z"/>
  <path fill="#4B5B19" d="M30.994 37.084a6.83 6.83 0 0 1 .934 1.544l1.528-.927-2.462-.617Z"/>
  <path fill="#6B7B3E" d="M31.924 35.105s1.245-.116 1.563-.255l.319-.138.512 1.236s-1.123.15-1.133.124c-.01-.026-1.26-.967-1.26-.967h-.001Z"/>
  <path fill="#4B5B19" d="M31.923 35.105c.552.834.787 1.625.787 1.625l1.607-.78-2.395-.844h.001Z"/>
  <path fill="#6B7B3E" d="M29.834 42.869s1.183-.41 1.458-.62l.275-.21.793 1.08s-1.056.412-1.071.39c-.016-.023-1.455-.64-1.455-.64Z"/>
  <path fill="#4B5B19" d="M29.834 42.869c.733.678 1.15 1.39 1.15 1.39l1.376-1.14-2.526-.25Z"/>
  <path fill="#6B7B3E" d="M29.54 44.974s1.055-.671 1.275-.94l.22-.268 1.02.867s-.933.645-.953.626c-.02-.019-1.564-.287-1.564-.287l.001.002Z"/>
  <path fill="#4B5B19" d="M29.54 44.974a6.869 6.869 0 0 1 1.44 1.087l1.075-1.427-2.515.34Z"/>
  <path fill="#6B7B3E" d="M30.604 46.014s1.055-.67 1.276-.94l.219-.267 1.02.867s-.932.645-.953.626c-.02-.02-1.563-.287-1.563-.287v.001Z"/>
  <path fill="#4B5B19" d="M30.604 46.014a6.807 6.807 0 0 1 1.44 1.087l1.075-1.426-2.515.34Z"/>
  <path fill="#6B7B3E" d="M31.086 43.982s1.055-.671 1.276-.94l.22-.268 1.02.867s-.933.645-.953.626c-.02-.019-1.564-.286-1.564-.286h.001Z"/>
  <path fill="#4B5B19" d="M31.086 43.982a6.807 6.807 0 0 1 1.441 1.087l1.075-1.427-2.515.34h-.001Z"/>
  <path fill="#6B7B3E" d="M31.377 41.863s1.055-.671 1.276-.94l.22-.268 1.02.868s-.932.646-.952.627c-.02-.02-1.564-.287-1.564-.287Z"/>
  <path fill="#4B5B19" d="M31.377 41.863a6.805 6.805 0 0 1 1.441 1.087l1.075-1.427-2.515.34h-.001Z"/>
  <path fill="#6B7B3E" d="M32.209 38.776s1.215-.298 1.51-.482l.293-.184.69 1.148s-1.09.314-1.103.289c-.014-.025-1.39-.771-1.39-.771Z"/>
  <path fill="#4B5B19" d="M32.209 38.776a6.812 6.812 0 0 1 1.017 1.491l1.475-1.009-2.492-.482Z"/>
  <path fill="#6B7B3E" d="M32.684 36.522s1.215-.298 1.51-.482l.293-.183.689 1.148s-1.089.314-1.103.289c-.014-.025-1.39-.772-1.39-.772Z"/>
  <path fill="#4B5B19" d="M32.684 36.522a6.81 6.81 0 0 1 1.017 1.492l1.475-1.01-2.492-.482Z"/>
  <path fill="#6B7B3E" d="M29.781 47.417s.852-.916.997-1.23l.145-.316 1.206.582s-.737.86-.763.846c-.025-.012-1.585.118-1.585.118Z"/>
  <path fill="#4B5B19" d="M29.781 47.417a6.84 6.84 0 0 1 1.669.688l.68-1.652-2.349.964Z"/>
  <path fill="#6B7B3E" d="M30.28 48.844s.977-.784 1.165-1.075l.189-.291 1.11.75s-.854.744-.877.728c-.023-.016-1.586-.112-1.586-.112Z"/>
  <path fill="#4B5B19" d="M30.281 48.844a6.76 6.76 0 0 1 1.552.921l.911-1.537-2.463.616Z"/>
  <path fill="#6B7B3E" d="M30.802 50.99s.768-.986.884-1.313l.116-.327 1.253.473s-.66.922-.685.91c-.026-.01-1.568.258-1.568.258Z"/>
  <path fill="#4B5B19" d="M30.8 50.99c.985.169 1.724.539 1.724.539l.53-1.706-2.253 1.168Z"/>
  <path fill="#6B7B3E" d="M31.615 53.036s.494-1.15.524-1.496l.03-.346 1.33.142s-.404 1.058-.432 1.054c-.028-.003-1.453.645-1.453.645Z"/>
  <path fill="#4B5B19" d="M31.615 53.036a6.87 6.87 0 0 1 1.803.085l.082-1.785-1.886 1.699h.001Z"/>
  <path fill="#6B7B3E" d="M32.358 54.599s.71-1.03.808-1.364l.097-.333 1.278.4s-.605.959-.633.949c-.026-.01-1.55.346-1.55.346v.002Z"/>
  <path fill="#4B5B19" d="M32.357 54.598a6.827 6.827 0 0 1 1.751.439l.433-1.734-2.184 1.295Z"/>
  <path fill="#6B7B3E" d="M33.368 56.469s.453-1.167.472-1.513l.017-.346 1.336.095s-.368 1.072-.395 1.07c-.028-.004-1.43.695-1.43.695v-.001Z"/>
  <path fill="#4B5B19" d="M33.367 56.469a6.842 6.842 0 0 1 1.805.021l.02-1.785-1.825 1.764Z"/>
  <path fill="#6B7B3E" d="M35.011 58.295s.144-1.243.073-1.582l-.07-.34 1.316-.245s-.085 1.13-.112 1.135c-.028.003-1.207 1.034-1.207 1.034v-.002Z"/>
  <path fill="#4B5B19" d="M35.01 58.295c.93-.368 1.752-.436 1.752-.436l-.432-1.733-1.32 2.169Z"/>
  <path fill="#6B7B3E" d="M36.259 59.148s.32-1.21.3-1.556l-.019-.346 1.338-.053s-.247 1.106-.276 1.106c-.028 0-1.343.849-1.343.849Z"/>
  <path fill="#4B5B19" d="M36.258 59.148c.972-.23 1.796-.178 1.796-.178l-.177-1.777-1.62 1.955Z"/>
  <path fill="#6B7B3E" d="M37.95 60.568s.034-1.25-.065-1.584l-.1-.332 1.289-.36s.014 1.133-.013 1.14c-.027.006-1.111 1.136-1.111 1.136Z"/>
  <path fill="#4B5B19" d="M37.951 60.568c.892-.448 1.706-.588 1.706-.588l-.583-1.688-1.123 2.276Z"/>
  <path fill="#6B7B3E" d="M40.012 61.63s-.284-1.219-.464-1.515l-.18-.295 1.156-.675s.3 1.093.276 1.105c-.025.014-.789 1.38-.789 1.38h.001Z"/>
  <path fill="#4B5B19" d="M40.013 61.63c.751-.66 1.502-1 1.502-1l-.99-1.485-.513 2.485Z"/>
  <path fill="#6B7B3E" d="M31.623 47.654s1.079-.634 1.307-.894l.229-.261.99.902s-.953.613-.974.593c-.02-.02-1.552-.34-1.552-.34Z"/>
  <path fill="#4B5B19" d="M31.623 47.654a6.857 6.857 0 0 1 1.403 1.136l1.122-1.389-2.525.253Z"/>
  <path fill="#6B7B3E" d="M31.604 46.457s1.078-.634 1.306-.894l.23-.261.99.902s-.953.613-.974.593c-.02-.02-1.553-.34-1.553-.34Z"/>
  <path fill="#4B5B19" d="M31.604 46.457a6.85 6.85 0 0 1 1.402 1.136l1.123-1.389-2.525.253Z"/>
  <path fill="#6B7B3E" d="M31.867 49.993s1.08-.634 1.307-.894l.229-.261.99.902s-.953.613-.974.593c-.02-.02-1.552-.34-1.552-.34Z"/>
  <path fill="#4B5B19" d="M31.867 49.993a6.858 6.858 0 0 1 1.403 1.136l1.122-1.389-2.525.253Z"/>
  <path fill="#6B7B3E" d="M49.432 27.1s-.392 1.297-.383 1.673l.01.376-1.451.008s.308-1.188.337-1.187c.03 0 1.485-.87 1.485-.87h.002Z"/>
  <path fill="#4B5B19" d="M49.432 27.1c-1.06.213-1.95.127-1.95.127l.127 1.931 1.823-2.058Z"/>
  <path fill="#6B7B3E" d="M51.035 28.324s-.391 1.298-.383 1.673l.01.376-1.45.009s.307-1.189.338-1.188c.03 0 1.485-.87 1.485-.87Z"/>
  <path fill="#4B5B19" d="M51.036 28.324c-1.061.213-1.95.127-1.95.127l.126 1.932 1.824-2.059Z"/>
  <path fill="#6B7B3E" d="M50.855 30.351s-.697 1.162-.78 1.53l-.082.366-1.409-.346s.59-1.077.619-1.068c.03.009 1.653-.48 1.653-.48v-.002Z"/>
  <path fill="#4B5B19" d="M50.856 30.351c-1.08-.053-1.923-.354-1.923-.354l-.35 1.904 2.273-1.549Z"/>
  <path fill="#6B7B3E" d="M49.403 29.655s-.401 1.294-.394 1.67l.007.377h-1.45s.315-1.186.345-1.186c.031.001 1.492-.861 1.492-.861Z"/>
  <path fill="#4B5B19" d="M49.402 29.655c-1.063.206-1.952.114-1.952.114l.114 1.933 1.837-2.047Z"/>
  <path fill="#6B7B3E" d="M47.57 27.15s-.374 1.304-.36 1.678l.015.376-1.45.03s.29-1.192.322-1.192c.03 0 1.474-.892 1.474-.892h-.001Z"/>
  <path fill="#4B5B19" d="M47.57 27.15c-1.059.23-1.95.155-1.95.155l.155 1.93 1.795-2.083v-.001Z"/>
  <path fill="#6B7B3E" d="M45.642 24.712s.124 1.35.275 1.695l.15.344-1.34.554s-.16-1.216-.134-1.227c.029-.01 1.049-1.366 1.049-1.366Z"/>
  <path fill="#4B5B19" d="M45.643 24.712a7.365 7.365 0 0 1-1.76.852l.843 1.741.917-2.593Z"/>
  <path fill="#6B7B3E" d="M43.253 24.42s.867 1.043 1.184 1.243l.319.199-.793 1.215s-.82-.913-.804-.938c.018-.025.094-1.719.094-1.719Z"/>
  <path fill="#4B5B19" d="M43.254 24.42a7.429 7.429 0 0 1-.97 1.698l1.68.959-.71-2.657Z"/>
  <path fill="#6B7B3E" d="M42.163 25.71s.867 1.041 1.185 1.242l.318.199-.793 1.215s-.82-.913-.803-.937c.018-.025.094-1.719.094-1.719Z"/>
  <path fill="#4B5B19" d="M42.164 25.71a7.435 7.435 0 0 1-.97 1.697l1.68.959-.71-2.657Z"/>
  <path fill="#6B7B3E" d="M45.924 26.75s-.288 1.325-.25 1.699l.04.373-1.445.125s.212-1.208.242-1.21c.03-.002 1.412-.986 1.412-.986Z"/>
  <path fill="#4B5B19" d="M45.925 26.75c-1.041.297-1.935.282-1.935.282l.281 1.915 1.654-2.197Z"/>
  <path fill="#FFE6C1" d="M43.824 26.512s-1.224 1.312-1.625 1.18c-.403-.13-.557-.817-.557-.817s-.4.844-.905 1.022c-.504.178-.728-.608-.728-.608l-.077.346c-.077.347-.257.839-.552.946-.293.109-.731-.587-.731-.587s.214.72-.32 1.34c-.534.622-1.375-.315-1.375-.315s.196.53.322.959c.09.307.056.612-.09.803.031-.144.042-.214.024-.188a1.093 1.093 0 0 0-.102.27.494.494 0 0 1-.149.085c-.328.112-1.231-.377-1.231-.377s.922 1.582.694 1.958a2.431 2.431 0 0 1-.137.164c-.656.691-2.028.144-2.028.144s1.325 1.49.804 1.927c-.521.438-1.81.558-1.81.558s1.785 1.014 1.395 1.659c-.39.646-1.556.958-1.556.958s.098.025.692.392c.522.323.657.74.534 1.196-.59.592-1.817.372-1.817.372s1.598 1.194 1.176 1.727c-.421.533-1.661.91-1.661.91s1.952.633 1.7 1.345-1.332 1.251-1.332 1.251.1.005.757.245c.332.123.544.302.66.522.003.095 0 .2-.017.315-.08.569-1.267.446-1.267.446s1.116.664 1.191 1.245c.076.58-1.29.878-1.29.878s1.527.585 1.503 1.018c-.024.434-.997 1.49-.946 1.529.05.039 1.422-.037 1.422-.037l-1.01 1.398 1.152-.22-1.06 2.047 1.487-.302-.62 2.115 1.687-.511-.084 1.137.612-.147s1.886 2.939 3.679 3.077c3.98.306 8.418-2.798 9.75-10.446.424-2.438.557-7.272.552-8.303-.012-2.734-.805-6.508-1.273-7.666-2.31-5.713-4.776-5.948-5.226-5.88-.45.069-.222-1.081-.222-1.081h.005Z"/>
  <path fill="#F4C895" d="M36.42 36.281c-.788 2.36-1.43 7.738-1.293 9.867.137 2.129.16 4.56.943 6.175.784 1.616 2.386 3.79 2.62 4.685.233.896 1.272 2.813 2.844 2.335 1.573-.478 2.205-.757 4.514-3.618 2.308-2.861 3.333-5.351 3.417-7.867.084-2.515-.334-4.09-.365-5.716-.046-2.523-1.218-9.762-3.945-12.84-1.284-1.449-5.48-2.77-8.735 6.977v.002Z"/>
  <path fill="#E77F40" d="M36.14 45.136s-.038 5.193.41 6.49c.447 1.295 1.882 2.986 2.318 3.784.436.798.856 1.733 1.04 2.323.185.59.963 1.36 1.828.842.865-.519 2.175-2.202 3.243-3.574 1.069-1.372 2.648-3.384 2.925-4.249.276-.865.277-2.228.436-4.293.158-2.063-.03-3.715.015-4.197.197-2.11-.817-6.524-.817-6.524l-9.226 9.916-2.17-.519h-.001Z"/>
  <path fill="#FFCA00" d="M40.635 57.682a.76.76 0 0 0 .95.071c1.008-.687.846-1.193 4.111-5.161 1.522-1.85 1.938-4.663 1.93-6.204-.01-1.542.759-4.99.282-8.992-.477-4.002-2.529-7.448-3.713-8.14-.908-.53-5.149-.775-6.806 5.262-1.657 6.036-1.514 9.794-1.295 12.74.218 2.947.521 4.523 2.565 7.002 2.232 2.706 1.335 2.825 1.975 3.423Z"/>
  <path fill="#FFDF82" d="M40.014 30.775c-.36.409-.66.876-.92 1.353a12.133 12.133 0 0 0-1.472 6.404c.07 1.376.532 2.538 1.135 3.752.53 1.066 2.074 1.048 3.026.55.948-.497 1.542-1.473 1.978-2.442 1.326-2.938 2.002-6.66.495-9.597-.358-.698-.872-1.246-1.713-1.294-.574-.032-1.148.17-1.634.486a4.388 4.388 0 0 0-.897.788h.002Z"/>
  <path fill="#FFB41A" d="M37 50.724a.792.792 0 0 0 .013.177c.059.326.232.672.376.97.18.37.391.726.63 1.062.873 1.23 1.887 2.084 2.11 2.844.224.76.487 1.472.967 1.33.478-.14 1.051-1.31 1.879-2.413.827-1.102 2.266-2.732 2.755-3.775.487-1.041.825-3.36.92-4.415.095-1.055.285-2.819.357-3.7.073-.88-.732-.747-1.508 2.322-.777 3.07-1.848 5.039-3.187 6.348-.631.618-1.512.904-2.386.83a2.833 2.833 0 0 1-1.006-.263c-.425-.207-.657-.598-.954-.955-.182-.22-.367-.438-.555-.652-.053-.06-.124-.128-.203-.111-.048.01-.084.047-.11.087a.599.599 0 0 0-.096.314H37Z"/>
  <path fill="#FFB41A" d="M36.952 47.444a.226.226 0 0 0-.3.176c-.032.197.022.489.447.783.742.512 2.353.931 2.756.66.404-.273.01-.526-.683-.641-.691-.114-1.205-.256-1.513-.475-.309-.22-.556-.447-.704-.502l-.004-.002Zm.288 1.813c.16.15 1.411.755 1.748.795.338.04.209.17.068.208-.14.037-.9-.256-1.415-.569-.515-.311-.72-.41-.67-.478.052-.068.27.044.27.044Zm5.85-2.397c.729.241 2.35.353 3.07.04.72-.312 1.004-2.02.509-1.956-.496.065-1.35.961-2.251 1.013-.901.05-1.46.114-1.615.39-.156.277.148.468.288.514Z"/>
  <path fill="#FFDF82" d="M36.803 42.935s-.012 2.1.092 2.813c.104.714 1.147 1.633 2.015 1.711.868.078 2.548-.822 2.863-2.165.315-1.343-.76-1.39-2.002-1.518-1.243-.129-1.848-1.961-2.383-1.969-.535-.008-.587 1.127-.587 1.127h.002Z"/>
</svg>
